HIERARCHY
ROOT Hips
{
	OFFSET 53.336899 -11.285416 95.691498
	CHANNELS 6 Xposition Yposition Zposition Xrotation Yrotation Zrotation
	JOINT spine
	{
		OFFSET 0.000000 -0.458069 7.965683
		CHANNELS 3 Xrotation Yrotation Zrotation
		JOINT spine1
		{
			OFFSET 0.000000 -0.000001 10.243103
			CHANNELS 3 Xrotation Yrotation Zrotation
			JOINT spine2
			{
				OFFSET 0.000000 -0.000002 9.814751
				CHANNELS 3 Xrotation Yrotation Zrotation
				JOINT Neck
				{
					OFFSET 0.000000 -1.201384 25.198601
					CHANNELS 3 Xrotation Yrotation Zrotation
					JOINT Head
					{
						OFFSET 0.000000 -0.000002 7.613144
						CHANNELS 3 Xrotation Yrotation Zrotation
						End Site
						{
							OFFSET 0.000000 6.077327 18.428101
						}
					}
				}
				JOINT RightShoulder
				{
					OFFSET -4.132698 0.575449 10.599205
					CHANNELS 3 Xrotation Yrotation Zrotation
					JOINT RightArm
					{
						OFFSET 0.000000 -0.000002 13.901794
						CHANNELS 3 Xrotation Yrotation Zrotation
						JOINT RightArmRoll
						{
							OFFSET 0.000000 -0.000002 7.017883
							CHANNELS 3 Xrotation Yrotation Zrotation
							JOINT RightForeArm
							{
								OFFSET 0.000000 -0.000003 20.440598
								CHANNELS 3 Xrotation Yrotation Zrotation
								JOINT RightForeArmRoll
								{
									OFFSET 0.000000 -0.000001 7.875153
									CHANNELS 3 Xrotation Yrotation Zrotation
									JOINT RightHand
									{
										OFFSET 0.000000 -0.000003 15.803696
										CHANNELS 3 Xrotation Yrotation Zrotation
										End Site
										{
											OFFSET 0.000000 0.000000 0.100006
										}
									}
								}
							}
						}
					}
				}
				JOINT LeftShoulder
				{
					OFFSET 4.132698 0.575449 10.599205
					CHANNELS 3 Xrotation Yrotation Zrotation
					JOINT LeftArm
					{
						OFFSET 0.000000 -0.000002 13.901794
						CHANNELS 3 Xrotation Yrotation Zrotation
						JOINT LeftArmRoll
						{
							OFFSET 0.000000 -0.000002 7.017883
							CHANNELS 3 Xrotation Yrotation Zrotation
							JOINT LeftForeArm
							{
								OFFSET 0.000000 -0.000003 20.440598
								CHANNELS 3 Xrotation Yrotation Zrotation
								JOINT LeftForeArmRoll
								{
									OFFSET 0.000000 -0.000001 7.875153
									CHANNELS 3 Xrotation Yrotation Zrotation
									JOINT LeftHand
									{
										OFFSET 0.000000 -0.000003 15.803696
										CHANNELS 3 Xrotation Yrotation Zrotation
										End Site
										{
											OFFSET 0.000000 0.000000 0.100006
										}
									}
								}
							}
						}
					}
				}
			}
		}
	}
	JOINT RightUpLeg
	{
		OFFSET -7.060478 1.086090 -1.294701
		CHANNELS 3 Xrotation Yrotation Zrotation
		JOINT RightUpLegRoll
		{
			OFFSET 0.000000 -0.000003 18.530800
			CHANNELS 3 Xrotation Yrotation Zrotation
			JOINT RightLeg
			{
				OFFSET 0.000000 0.000004 -22.947601
				CHANNELS 3 Xrotation Yrotation Zrotation
				JOINT RightLegRoll
				{
					OFFSET 0.000000 -0.000004 23.022598
					CHANNELS 3 Xrotation Yrotation Zrotation
					JOINT RightFoot
					{
						OFFSET 0.000000 -0.000004 19.162506
						CHANNELS 3 Xrotation Yrotation Zrotation
						JOINT RightToeBase
						{
							OFFSET 0.000000 -0.000002 16.018799
							CHANNELS 3 Xrotation Yrotation Zrotation
							End Site
							{
								OFFSET 0.006790 0.894204 7.757812
							}
						}
					}
				}
			}
		}
	}
	JOINT LeftUpLeg
	{
		OFFSET 7.060478 1.086090 -1.294701
		CHANNELS 3 Xrotation Yrotation Zrotation
		JOINT LeftUpLegRoll
		{
			OFFSET 0.000000 -0.000003 18.530899
			CHANNELS 3 Xrotation Yrotation Zrotation
			JOINT LeftLeg
			{
				OFFSET 0.000000 -0.000004 22.947502
				CHANNELS 3 Xrotation Yrotation Zrotation
				JOINT LeftLegRoll
				{
					OFFSET 0.000000 -0.000004 23.235504
					CHANNELS 3 Xrotation Yrotation Zrotation
					JOINT LeftFoot
					{
						OFFSET 0.000000 -0.000003 18.949600
						CHANNELS 3 Xrotation Yrotation Zrotation
						JOINT LeftToeBase
						{
							OFFSET 0.000000 -0.000003 16.018799
							CHANNELS 3 Xrotation Yrotation Zrotation
							End Site
							{
								OFFSET -0.030430 0.894206 7.757812
							}
						}
					}
				}
			}
		}
	}
}
MOTION
Frames: 7
Frame Time: 0.041667
52.118595 -10.911119 95.417000 -3.745627 0.492753 0.089326 -1.608071 -0.366803 0.097963 0.787273 -0.735674 0.189189 2.432399 -0.733354 0.197992 24.028322 6.668853 -2.038984 -1.708104 -5.498401 -1.205876 11.960003 -69.782014 11.873141 -55.523643 -114.082157 -21.563469 -0.000001 0.000007 -0.000001 -0.064234 8.386259 0.912748 -0.000002 0.000000 -3.104997 -5.000127 -8.000429 -0.000044 6.908494 77.856315 -5.147258 -68.821785 111.781537 34.375423 0.000001 0.000001 0.000002 -0.015188 -10.434703 -1.229608 -0.000001 -0.000017 2.999991 -5.000136 8.000818 0.000111 2.178190 -174.133214 -0.671385 -179.999991 0.000005 -1.157999 173.068456 -2.585988 -0.751278 -0.000006 -0.000001 0.050573 69.757876 6.677118 2.644516 25.470487 -7.355620 0.010662 -0.288489 172.863099 -0.284443 -0.000020 -0.000004 -1.262700 -12.244603 1.078266 0.408245 -0.000004 -0.000001 -0.334841 72.362842 -6.887277 -1.907451 25.522708 7.355513 -0.102818 
52.112995 -10.894716 95.413101 -3.733503 0.485513 0.080551 -1.609772 -0.367667 0.099665 0.783886 -0.737808 0.192475 2.429021 -0.735449 0.201310 24.000136 6.737144 -2.055157 -1.710668 -5.573671 -1.213439 11.943297 -69.708323 11.867948 -55.313362 -113.990571 -21.280921 -0.000000 0.000007 -0.000002 -0.064236 8.420518 0.918278 0.000002 -0.000001 -3.104233 -5.000130 -8.000429 -0.000045 6.854644 77.913115 -5.082323 -68.881112 111.679993 34.621044 0.000001 0.000001 0.000002 0.046865 -10.170101 -1.200997 -0.000002 -0.000017 2.999991 -5.000134 8.000817 0.000110 2.163145 -174.121166 -0.667488 -179.999991 0.000005 -1.157002 173.068551 -2.586978 -0.752391 -0.000006 -0.000001 0.050355 69.753901 6.675583 2.648783 25.470489 -7.355621 0.010662 -0.291677 172.874082 -0.277238 -0.000019 -0.000004 -1.262690 -12.232507 1.079712 0.408108 -0.000004 -0.000001 -0.334868 72.357590 -6.887310 -1.906781 25.524022 7.355512 -0.104252 
52.070198 -10.898915 95.408897 -3.721300 0.478221 0.071817 -1.611480 -0.368524 0.101381 0.780472 -0.739956 0.195749 2.425601 -0.737557 0.204613 23.971802 6.805984 -2.071740 -1.712788 -5.650341 -1.221346 11.928465 -69.634707 11.864769 -55.101469 -113.900815 -20.995467 -0.000002 0.000008 -0.000002 -0.064240 8.456788 0.924110 -0.000002 0.000000 -3.103511 -5.000131 -8.000428 -0.000044 6.805593 77.972190 -5.022162 -68.942249 111.577970 34.869431 -0.000001 -0.000000 -0.000000 0.107552 -9.903959 -1.173103 0.000001 -0.000018 2.999990 -5.000137 8.000819 0.000112 2.147865 -174.109117 -0.663668 -179.999991 0.000004 -1.157002 173.068592 -2.587968 -0.752510 -0.000006 -0.000001 0.050142 69.749817 6.674012 2.653045 25.470491 -7.355619 0.010661 -0.295041 172.885093 -0.269949 -0.000020 -0.000004 -1.262660 -12.220510 1.081130 0.407978 -0.000003 -0.000001 -0.334916 72.352310 -6.887310 -1.906105 25.525438 7.355512 -0.105713 
52.095795 -10.926619 95.413902 -3.709034 0.470891 0.063114 -1.613216 -0.369376 0.103105 0.777039 -0.742111 0.199012 2.422172 -0.739673 0.207907 23.943628 6.875207 -2.088616 -1.714585 -5.727982 -1.229507 11.915017 -69.561208 11.863053 -54.887366 -113.812583 -20.706962 0.000001 0.000007 -0.000003 -0.064241 8.494467 0.930155 -0.000000 0.000000 -3.102810 -5.000127 -8.000429 -0.000044 6.759737 78.032787 -4.965170 -69.005613 111.475306 35.120696 -0.000002 -0.000000 0.000001 0.167259 -9.636825 -1.145874 -0.000000 -0.000015 2.999990 -5.000136 8.000820 0.000113 2.132424 -174.097055 -0.659904 -179.999991 0.000005 -1.156005 173.068565 -2.587969 -0.753508 -0.000006 -0.000001 0.049934 69.745739 6.672471 2.657213 25.470487 -7.355619 0.010662 -0.298547 172.896089 -0.262601 -0.000020 -0.000004 -1.262640 -12.208613 1.082518 0.407852 -0.000004 -0.000001 -0.334979 72.346935 -6.887315 -1.905439 25.526761 7.355509 -0.107188 
52.132797 -10.919919 95.418900 -3.696728 0.463537 0.054429 -1.614941 -0.370224 0.104835 0.773594 -0.744272 0.202268 2.418723 -0.741795 0.211195 23.915284 6.944668 -2.105600 -1.716212 -5.806173 -1.237810 11.902383 -69.487756 11.862200 -54.668954 -113.726283 -20.413245 -0.000001 0.000007 -0.000001 -0.064251 8.532948 0.936320 -0.000000 -0.000001 -3.102120 -5.000132 -8.000429 -0.000043 6.715569 78.094320 -4.909846 -69.070541 111.372115 35.373744 -0.000001 -0.000000 0.000001 0.226374 -9.369093 -1.119269 0.000002 -0.000017 2.999991 -5.000136 8.000820 0.000110 2.116902 -174.085020 -0.656175 -179.999991 0.000005 -1.156005 173.068524 -2.587969 -0.753510 -0.000006 -0.000001 0.049728 69.741648 6.670894 2.661477 25.470491 -7.355621 0.010662 -0.302116 172.908097 -0.255227 -0.000020 -0.000004 -1.262610 -12.196719 1.083905 0.407731 -0.000003 -0.000001 -0.335051 72.341546 -6.887319 -1.904771 25.528168 7.355516 -0.108682 
52.129997 -10.911217 95.419090 -3.684414 0.456174 0.045751 -1.616671 -0.371071 0.106566 0.770148 -0.746435 0.205525 2.415274 -0.743918 0.214482 23.887075 7.014192 -2.122575 -1.717794 -5.884503 -1.246157 11.890026 -69.414304 11.861622 -54.449298 -113.640469 -20.118198 0.000001 0.000007 -0.000002 -0.064256 8.571630 0.942521 0.000001 0.000000 -3.101451 -5.000131 -8.000429 -0.000043 6.671562 78.156140 -4.854659 -69.137401 111.268235 35.628575 0.000002 -0.000001 0.000002 0.285280 -9.101172 -1.093236 0.000002 -0.000018 2.999990 -5.000134 8.000819 0.000112 2.101345 -174.072958 -0.652460 -179.999991 0.000004 -1.156005 173.068442 -2.588958 -0.754631 -0.000006 -0.000001 0.049522 69.737563 6.669318 2.665741 25.470489 -7.355619 0.010661 -0.305708 172.919093 -0.247839 -0.000020 -0.000004 -1.262570 -12.184719 1.085284 0.407607 -0.000004 -0.000001 -0.335126 72.336163 -6.887321 -1.904103 25.529581 7.355511 -0.110173 
52.138798 -10.917218 95.421898 -3.672123 0.448818 0.037069 -1.618403 -0.371921 0.108294 0.766706 -0.748595 0.208782 2.411835 -0.746041 0.217772 23.858884 7.083627 -2.139381 -1.719480 -5.962562 -1.254431 11.877433 -69.340866 11.860768 -54.228072 -113.554982 -19.821728 -0.000000 0.000006 -0.000003 -0.064263 8.609917 0.948657 -0.000000 0.000001 -3.100758 -5.000127 -8.000428 -0.000046 6.625949 78.217380 -4.797848 -69.206024 111.163706 35.884810 -0.000001 0.000000 0.000003 0.344352 -8.833496 -1.067733 -0.000001 -0.000017 2.999987 -5.000134 8.000820 0.000110 2.085836 -174.060910 -0.648737 -179.999991 0.000005 -1.154994 173.068415 -2.588957 -0.754632 -0.000006 -0.000001 0.049316 69.733472 6.667742 2.670003 25.470493 -7.355620 0.010661 -0.309264 172.930090 -0.240470 -0.000020 -0.000004 -1.262540 -12.172825 1.086672 0.407485 -0.000004 -0.000001 -0.335195 72.330788 -6.887323 -1.903335 25.530998 7.355508 -0.111662 
